<svg id="Layer_1" data-name="Layer 1" xmlns="http://www.w3.org/2000/svg" viewBox="0 0 1344.71 579.37"><path d="M29.2,578.88c20.58,13.45,57,27.7,91.81,27.7,50.66,0,74.4-25.33,74.4-57,0-33.24-19.78-51.45-71.23-70.44C55.32,454.61,22.87,416.62,22.87,370.71c0-61.73,49.86-112.39,132.18-112.39,38.78,0,72.81,11.08,94.18,23.75l-17.41,50.65a149.17,149.17,0,0,0-78.36-22.16c-41.15,0-64.11,23.75-64.11,52.24,0,31.66,23,45.91,72.82,64.9C228.66,453,262.69,486.27,262.69,543.26c0,67.28-52.24,114.77-143.26,114.77-41.95,0-80.73-10.29-107.64-26.12Z" transform="translate(-11.79 -79.45)"/><path d="M504.88,430.87c-8.7-26.12-17.41-52.24-25.32-83.11h-4c-5.54,25.33-15.83,54.61-24.54,80.73L372.71,650.11H299.89L438.4,295.52c3.17-8.7,4.75-14.24,4.75-18.2,0-4.75-1.58-11.87-5.54-21.37-24.54-67.28-53-120.31-99.73-120.31a81.42,81.42,0,0,0-13.45.79l6.33-53.82c6.33-2.37,17.41-3.16,26.91-3.16,75.19,0,110.81,72,152,181.25L656.06,650.11H582.45Z" transform="translate(-11.79 -79.45)"/><path d="M709.08,609c0-29.28,19.79-49.86,47.49-49.86s46.7,20.58,46.7,49.86c0,28.5-18.21,49.87-47.49,49.87C728.08,658.82,709.08,637.45,709.08,609Z" transform="translate(-11.79 -79.45)"/><path d="M1089.77,267l54.61,82.31c14.25,21.37,26.12,41.16,38.79,62.53h2.37c12.66-22.95,25.33-42.74,38-63.32L1277.35,267h75.19L1222,452.24,1356.5,650.11h-79.15l-56.19-86.27c-15-22.16-27.7-43.53-41.16-66.49h-1.58c-12.67,23-26.12,43.53-40.37,66.49l-55.4,86.27h-76.78L1142,454.61,1012.2,267Z" transform="translate(-11.79 -79.45)"/></svg>