<svg id="Layer_1" data-name="Layer 1" xmlns="http://www.w3.org/2000/svg" viewBox="0 0 570.88 659.47"><path d="M397.46,508.77c-10-30-20-60-29.07-95.39h-4.54c-6.36,29.07-18.17,62.68-28.16,92.66L245.74,760.42H162.16l159-407c3.63-10,5.45-16.35,5.45-20.89,0-5.45-1.82-13.63-6.36-24.53-28.16-77.23-60.87-138.1-114.47-138.1a93.41,93.41,0,0,0-15.45.91L197.59,109c7.27-2.72,20-3.63,30.89-3.63,86.31,0,127.19,82.67,174.44,208.05L571,760.42H486.5Z" transform="translate(-0.11 -105.39)"/><path d="M10.88,715.87C23.62,724.2,46.16,733,67.71,733c31.36,0,46.06-15.67,46.06-35.27,0-20.58-12.25-31.84-44.1-43.6C27.05,639,7,615.43,7,587c0-38.21,30.86-69.57,81.81-69.57,24,0,45.07,6.86,58.3,14.7L136.3,563.5a92.27,92.27,0,0,0-48.5-13.71c-25.47,0-39.68,14.69-39.68,32.33,0,19.6,14.21,28.42,45.07,40.17,41.15,15.68,62.22,36.26,62.22,71.53,0,41.64-32.33,71-88.68,71-26,0-50-6.37-66.62-16.17Z" transform="translate(-0.11 -105.39)"/></svg>